<svg xmlns="http://www.w3.org/2000/svg" width="23.925" height="23.947" viewBox="0 0 23.925 23.947">
  <g id="Group_1582" data-name="Group 1582" transform="translate(0 0)">
    <path id="Path_11571" data-name="Path 11571" d="M-1414.135,1976.547q0-9.155,0-18.31c0-.669-.135-.87-.752-1.1l-10.693-4.01a1.454,1.454,0,0,0-.594-.095.725.725,0,0,0-.714.694c-.011.124-.006.249-.006.374V1975c0,.1,0,.2,0,.3,0,.137-.07.2-.2.2s-.28,0-.42,0a.688.688,0,0,0-.751.584v.374a.591.591,0,0,0,.514.514h13.55A.616.616,0,0,0-1414.135,1976.547Zm-4.975-16.391c.233-.007.467,0,.7,0s.467-.007.7,0a.693.693,0,0,1,.7.694.69.69,0,0,1-.713.7q-.688.009-1.377,0a.69.69,0,0,1-.711-.7A.693.693,0,0,1-1419.11,1960.156Zm.02,2.8c.225-.006.451,0,.677,0s.467-.006.7,0a.693.693,0,0,1,.7.691.69.69,0,0,1-.71.707q-.688.01-1.377,0a.689.689,0,0,1-.714-.7A.692.692,0,0,1-1419.09,1962.959Zm-.025,2.805c.467-.01.934-.009,1.4,0a.688.688,0,0,1,.7.711.693.693,0,0,1-.708.686c-.233.006-.467,0-.7,0s-.467.006-.7,0a.692.692,0,0,1-.693-.7A.686.686,0,0,1-1419.115,1965.764Zm0,2.8c.474-.01.949-.011,1.423,0a.686.686,0,0,1,.684.709.69.69,0,0,1-.682.686c-.241.009-.483,0-.724,0s-.467.006-.7,0a.691.691,0,0,1-.7-.7A.687.687,0,0,1-1419.117,1968.568Zm-4.211-8.411q.711-.015,1.424,0a.688.688,0,0,1,.689.7.692.692,0,0,1-.7.694c-.233.006-.467,0-.7,0s-.467.005-.7,0a.691.691,0,0,1-.7-.693A.687.687,0,0,1-1423.328,1960.157Zm0,2.8c.474-.01.949-.011,1.424,0a.685.685,0,0,1,.686.706.693.693,0,0,1-.7.69c-.233.007-.467,0-.7,0s-.467.005-.7,0a.691.691,0,0,1-.7-.7A.685.685,0,0,1-1423.325,1962.961Zm0,2.8q.712-.015,1.424,0a.685.685,0,0,1,.689.7.693.693,0,0,1-.7.693c-.241.007-.482,0-.723,0-.226,0-.452.005-.677,0a.692.692,0,0,1-.7-.693A.686.686,0,0,1-1423.328,1965.764Zm0,2.8c.475-.011.95-.01,1.424,0a.686.686,0,0,1,.69.7.692.692,0,0,1-.7.694c-.241.007-.483,0-.724,0s-.451.005-.677,0a.692.692,0,0,1-.7-.692A.685.685,0,0,1-1423.329,1968.568Zm2.118,6.812c0,.139-.018.2-.183.2q-1.226-.015-2.449,0c-.147,0-.179-.038-.178-.18.006-1.089,0-2.177,0-3.266a.7.7,0,0,1,.772-.762c.614,0,1.229,0,1.843-.005.15,0,.194.036.192.19-.01.645,0,1.291,0,1.936C-1421.214,1974.12-1421.218,1974.75-1421.211,1975.38Zm4.03.2q-1.226-.012-2.449,0c-.162,0-.187-.053-.186-.2.008-.638,0-1.276,0-1.913s0-1.276,0-1.913c0-.151.035-.194.19-.192.614.01,1.228,0,1.842.005a.7.7,0,0,1,.774.76c0,1.089,0,2.177,0,3.266C-1417.005,1975.533-1417.031,1975.579-1417.181,1975.577Z" transform="translate(1428.27 -1953.028)" fill="#063"/>
    <path id="Path_11572" data-name="Path 11572" d="M-1404.36,1976.135a.7.7,0,0,0-.706-.561,3.632,3.632,0,0,0-.467,0c-.2.02-.268-.034-.268-.256q.012-5.756.006-11.512a.743.743,0,0,0-.621-.855l-4.567-1.532c-.6-.2-1.2-.4-1.821-.606v16.159h7.943c.007-.039.042-.036.068-.049A.706.706,0,0,0-1404.36,1976.135Zm-6.249-10.374h1.307c.444,0,.888,0,1.331,0a.7.7,0,0,1,.773.693.7.7,0,0,1-.78.708q-1.32,0-2.639,0a.7.7,0,0,1-.784-.7A.7.7,0,0,1-1410.609,1965.761Zm-.026,2.8q1.343,0,2.685,0a.7.7,0,0,1,.752.712.7.7,0,0,1-.754.688c-.452,0-.9,0-1.355,0s-.887,0-1.33,0a.7.7,0,0,1-.764-.7A.7.7,0,0,1-1410.635,1968.565Zm3.276,7.012c-.35-.01-.7-.011-1.05,0-.149,0-.195-.032-.194-.189.009-.809,0-1.618.007-2.427,0-.145-.025-.2-.186-.2a9.853,9.853,0,0,1-1,0c-.2-.011-.22.068-.219.235.008.786,0,1.572.007,2.358,0,.16-.017.233-.208.222-.341-.02-.684-.01-1.026,0-.123,0-.175-.016-.175-.159.007-1.113,0-2.226.007-3.338a.677.677,0,0,1,.706-.708q1.389-.01,2.778,0a.685.685,0,0,1,.716.723c.007.553,0,1.1,0,1.658s0,1.1,0,1.657C-1407.192,1975.537-1407.224,1975.58-1407.359,1975.577Z" transform="translate(1428.27 -1953.028)" fill="#063"/>
  </g>
</svg>
