<svg xmlns="http://www.w3.org/2000/svg" width="14.287" height="14.294" viewBox="0 0 14.287 14.294">
  <path id="Symbol" d="M-8.367,2.215a7.186,7.186,0,0,0,7.144-7.15,7.185,7.185,0,0,0-7.144-7.144,7.18,7.18,0,0,0-7.144,7.144A7.186,7.186,0,0,0-8.367,2.215Zm-.759-3.746a.883.883,0,0,1-.718-.376l-1.641-1.976a.831.831,0,0,1-.2-.526.692.692,0,0,1,.7-.7A.706.706,0,0,1-10.4-4.8l1.258,1.565,2.741-4.375A.72.72,0,0,1-5.79-8a.691.691,0,0,1,.725.663.957.957,0,0,1-.185.506L-8.442-1.921A.8.8,0,0,1-9.126-1.531Z" transform="translate(15.511 12.079)" fill="#629677"/>
</svg>
