<svg xmlns="http://www.w3.org/2000/svg" width="7.98" height="9.084" viewBox="0 0 7.98 9.084">
  <g id="Group_4068" data-name="Group 4068" transform="translate(-3203.973 309.278)">
    <path id="Path_11647" data-name="Path 11647" d="M3211.408-308.213c-.443,0-.887,0-1.331,0-.082,0-.19.035-.237-.015s-.012-.151-.014-.23a.809.809,0,0,0-.33-.664.993.993,0,0,0-.379-.155h-2.306a.15.15,0,0,1-.031.013.779.779,0,0,0-.638.544,1.125,1.125,0,0,0-.039.421c0,.066-.011.089-.084.088-.485,0-.97,0-1.455,0a.865.865,0,0,0-.15.01.527.527,0,0,0-.36.8.544.544,0,0,0,.5.255h6.812a.7.7,0,0,0,.176-.017.506.506,0,0,0,.374-.332A.527.527,0,0,0,3211.408-308.213Zm-2.129-.016c-.039.05-.155.014-.236.015-.36,0-.72,0-1.081,0-.416,0-.833,0-1.249,0-.065,0-.089-.013-.082-.081s0-.124,0-.186a.262.262,0,0,1,.264-.266q1.068,0,2.135,0a.26.26,0,0,1,.261.268C3209.295-308.392,3209.321-308.283,3209.279-308.229Z" transform="translate(0)" fill="#063"/>
    <path id="Path_11648" data-name="Path 11648" d="M3235.708-189.637q-1.676,0-3.352,0h-3.325c-.021,0-.042,0-.062,0-.037,0-.05.007-.046.049.049.568.095,1.136.142,1.7q.084,1.016.17,2.031c.053.63.1,1.26.158,1.89a.793.793,0,0,0,.816.747q2.15,0,4.3,0a.794.794,0,0,0,.813-.741c.041-.435.073-.871.11-1.307q.094-1.122.188-2.243c.056-.68.109-1.361.169-2.04C3235.8-189.622,3235.783-189.637,3235.708-189.637Zm-4.768,5.342a.255.255,0,0,1-.179-.24c-.031-.484-.06-.967-.09-1.451l-.135-2.15c-.014-.23-.033-.46-.04-.69a.264.264,0,0,1,.388-.246.253.253,0,0,1,.141.221q.046.712.089,1.424.068,1.093.136,2.185c.013.215.026.431.043.715A.257.257,0,0,1,3230.94-184.295Zm1.679-.2a.268.268,0,0,1-.282.217.264.264,0,0,1-.244-.258c0-.177,0-.355,0-.532v-1.622q0-1.059,0-2.119a.266.266,0,0,1,.359-.275.258.258,0,0,1,.171.227.765.765,0,0,1,0,.089q0,2.079,0,4.157A.666.666,0,0,1,3232.619-184.5Zm1.6-4.31c-.046.734-.091,1.444-.135,2.154q-.057.924-.113,1.849c-.005.088-.011.177-.017.265a.267.267,0,0,1-.28.259.261.261,0,0,1-.25-.278c.015-.325.038-.649.058-.973q.049-.787.1-1.574c.036-.581.071-1.162.108-1.742a.27.27,0,0,1,.285-.255A.266.266,0,0,1,3234.219-188.806Z" transform="translate(-24.394 -116.982)" fill="#063"/>
  </g>
</svg>
