<svg xmlns="http://www.w3.org/2000/svg" width="37.751" height="24.623" viewBox="0 0 37.751 24.623">
  <g id="Group_1593" data-name="Group 1593" transform="translate(469.909 2.108)">
    <path id="Path_11613" data-name="Path 11613" d="M-362.627,115.46a3.262,3.262,0,0,1-.787,1.179,2.619,2.619,0,0,1-1.69.57q-4.662-.007-9.323,0-8.2,0-16.4,0a2.34,2.34,0,0,1-2.442-1.9,2.277,2.277,0,0,1,2.193-2.573q.2-.008.405-.008,12.713,0,25.427-.006a2.449,2.449,0,0,1,2.395,1.3c.089.169.149.352.222.529Z" transform="translate(-69.531 -104.771)" fill="#fff"/>
    <path id="Path_11614" data-name="Path 11614" d="M-379.082-2.107q5.86,0,11.72,0A2.31,2.31,0,0,1-365.01-.413a2.259,2.259,0,0,1-2.075,2.774c-.122.008-.246.007-.368.007h-23.293A2.339,2.339,0,0,1-393.182.64,2.248,2.248,0,0,1-390.913-2.1c3.944-.012,7.887,0,11.831,0Z" transform="translate(-69.578)" fill="#fff"/>
    <path id="Path_11615" data-name="Path 11615" d="M-383.273,227.676q3.759,0,7.519,0a2.339,2.339,0,0,1,2.381,1.512,2.246,2.246,0,0,1-2.071,2.961c-.049,0-.1.006-.147.006q-7.666,0-15.332,0a2.324,2.324,0,0,1-2.342-1.885,2.245,2.245,0,0,1,2.18-2.574c2.6-.026,5.209-.008,7.813-.008Z" transform="translate(-69.532 -209.655)" fill="#fff"/>
    <path id="Path_11616" data-name="Path 11616" d="M-465.179.242a2.341,2.341,0,0,1-2.291,2.191A2.35,2.35,0,0,1-469.908.48a2.334,2.334,0,0,1,2.28-2.526A2.306,2.306,0,0,1-465.179.242Z" transform="translate(0 -0.055)" fill="#fff"/>
    <path id="Path_11617" data-name="Path 11617" d="M-465.133,229.989a2.316,2.316,0,0,1-2.176,2.248,2.391,2.391,0,0,1-2.55-2.262,2.324,2.324,0,0,1,2.377-2.227A2.31,2.31,0,0,1-465.133,229.989Z" transform="translate(-0.046 -209.722)" fill="#fff"/>
    <path id="Path_11618" data-name="Path 11618" d="M-465.133,115.076a2.322,2.322,0,0,1-2.155,2.233,2.385,2.385,0,0,1-2.571-2.273,2.336,2.336,0,0,1,2.355-2.218A2.322,2.322,0,0,1-465.133,115.076Z" transform="translate(-0.045 -104.859)" fill="#fff"/>
  </g>
</svg>
