<svg xmlns="http://www.w3.org/2000/svg" width="9.557" height="9.548" viewBox="0 0 9.557 9.548">
  <g id="Group_4069" data-name="Group 4069" transform="translate(-2736.313 841.656)">
    <path id="Path_11649" data-name="Path 11649" d="M2743.371-773.356h-6.077c-.033-.02-.069-.005-.1-.01a.884.884,0,0,1-.686-.393.924.924,0,0,1-.19-.591c0-2.007.007-4.013,0-6.02a1.043,1.043,0,0,1,1.024-1.029c.317,0,.634,0,.95,0h3.9c.054,0,.132-.023.155.029s-.048.1-.088.139q-1.168,1.171-2.339,2.339a1.275,1.275,0,0,0-.326.524c-.11.346-.228.69-.343,1.035a.8.8,0,0,0,.122.8.777.777,0,0,0,.785.3,3.24,3.24,0,0,0,.428-.13c.257-.083.512-.175.77-.255a1.206,1.206,0,0,0,.5-.31q1.171-1.174,2.346-2.345c.042-.042.081-.122.145-.094s.029.107.029.164q0,2.4,0,4.808a1.033,1.033,0,0,1-.513.916.668.668,0,0,1-.378.114C2743.441-773.361,2743.4-773.376,2743.371-773.356Z" transform="translate(0 -58.752)" fill="#063"/>
    <path id="Path_11650" data-name="Path 11650" d="M3050.689-840.553a2.731,2.731,0,0,1-.566.653c-.027.031-.044.018-.067,0q-.556-.557-1.113-1.112c-.035-.035-.024-.053,0-.081.144-.141.283-.287.429-.426a.45.45,0,0,1,.624-.012c.2.184.383.38.573.572a.8.8,0,0,1,.115.206Z" transform="translate(-304.82 0)" fill="#063"/>
    <path id="Path_11651" data-name="Path 11651" d="M2771.855-459.185l0-.016a.109.109,0,0,1,.1.016Z" transform="translate(-34.654 -372.923)" fill="#063"/>
    <path id="Path_11652" data-name="Path 11652" d="M3019.736-459.2l0,.016h-.093A.11.11,0,0,1,3019.736-459.2Z" transform="translate(-276.268 -372.923)" fill="#063"/>
    <path id="Path_11653" data-name="Path 11653" d="M2873.363-795.648a.278.278,0,0,1-.291-.348c.129-.407.267-.812.4-1.217a.318.318,0,0,1,.085-.12q1.707-1.706,3.411-3.413c.052-.052.075-.046.122,0q.53.537,1.067,1.067c.053.052.043.076,0,.122q-1.7,1.7-3.4,3.4a.448.448,0,0,1-.178.114l-1.119.371C2873.422-795.66,2873.383-795.653,2873.363-795.648Z" transform="translate(-133.341 -39.855)" fill="#063"/>
  </g>
</svg>
