<svg xmlns="http://www.w3.org/2000/svg" width="12.371" height="23.808" viewBox="0 0 12.371 23.808">
  <g id="Group_4058" data-name="Group 4058" transform="translate(2075.988 -973.981)">
    <path id="Path_11625" data-name="Path 11625" d="M-2072.357,997.789a.442.442,0,0,0,.021-.228q0-5.182.005-10.363c0-.194-.033-.261-.247-.258-1.061.013-2.122,0-3.183.009-.159,0-.228-.017-.227-.207q.015-1.928,0-3.857c0-.171.054-.2.21-.2,1.076.007,2.153,0,3.229.008.173,0,.217-.04.217-.215,0-1.138-.042-2.278.024-3.415a5.212,5.212,0,0,1,1.751-3.872,4.987,4.987,0,0,1,2.8-1.149,19.048,19.048,0,0,1,3.73.079c.4.038.4.045.4.457,0,1.046,0,2.091,0,3.137,0,.173-.032.23-.221.231-.82,0-1.641-.033-2.461.032a1.547,1.547,0,0,0-1.637,1.7c-.036.936-.006,1.874-.017,2.811,0,.167.048.2.207.2,1.247-.007,2.494,0,3.74-.007.18,0,.247.007.215.234-.177,1.262-.331,2.528-.484,3.793-.022.18-.083.24-.271.238-1.069-.01-2.137,0-3.206-.005-.108,0-.2-.023-.2.155q.012,5.344.01,10.688Z" transform="translate(0)" fill="#050506"/>
  </g>
</svg>
