<svg xmlns="http://www.w3.org/2000/svg" width="17.611" height="17.923" viewBox="0 0 17.611 17.923">
  <g id="Group_1585" data-name="Group 1585" transform="translate(-768.063 -405.748)">
    <path id="Path_11576" data-name="Path 11576" d="M777.166,434.2c0,.032.013.093-.023.087a12.575,12.575,0,0,0-1.727-.041.232.232,0,0,1-.04-.008c.073-.058.159-.034.239-.034C776.132,434.2,776.649,434.2,777.166,434.2Z" transform="translate(-6.909 -26.878)" fill="#063"/>
    <path id="Path_11577" data-name="Path 11577" d="M775.382,452.362c.5,0,1,0,1.5-.007a.433.433,0,0,0,.257-.033c.054-.033.025.049.035.077-.517,0-1.034,0-1.551,0C775.541,452.4,775.455,452.42,775.382,452.362Z" transform="translate(-6.914 -43.992)" fill="#063"/>
    <path id="Path_11578" data-name="Path 11578" d="M785.105,503.272c-.36.014-.722,0-1.082.006-.118,0-.173-.032-.215-.179a1.8,1.8,0,0,0-1.637-1.409,1.775,1.775,0,0,0-1.665,1.385c-.051.175-.121.2-.257.2q-5.809-.006-11.618-.007a.533.533,0,0,0-.568.413v.249a.534.534,0,0,0,.568.413q5.817-.008,11.635-.008c.138,0,.192.047.239.2a1.781,1.781,0,0,0,1.666,1.386,1.8,1.8,0,0,0,1.637-1.409c.042-.147.1-.182.215-.179.361.009.722-.007,1.082.006a.525.525,0,0,0,.568-.413v-.249A.524.524,0,0,0,785.105,503.272Zm-2.953,1.6a1.082,1.082,0,1,1,.876-1.054A.991.991,0,0,1,782.152,504.872Z" transform="translate(0 -89.1)" fill="#063"/>
    <path id="Path_11579" data-name="Path 11579" d="M785.105,599.235c-2.12.007-4.24,0-6.36.008-.13,0-.183-.043-.227-.192a1.673,1.673,0,0,0-3.3,0c-.043.147-.1.192-.227.192-2.12-.006-4.24,0-6.36-.008a.533.533,0,0,0-.568.413v.249a.533.533,0,0,0,.568.413c2.12-.006,4.24,0,6.36-.008.131,0,.184.044.227.192a1.673,1.673,0,0,0,3.3,0c.044-.149.1-.191.227-.191,2.12.006,4.24,0,6.359.008a.535.535,0,0,0,.568-.413v-.249A.534.534,0,0,0,785.105,599.235Zm-8.253,1.6a1,1,0,0,1-.866-1.07.984.984,0,0,1,.9-1.054,1,1,0,0,1,.866,1.07A.985.985,0,0,1,776.853,600.834Z" transform="translate(0 -178.219)" fill="#063"/>
    <path id="Path_11580" data-name="Path 11580" d="M785.105,407.328c-1.032.009-2.063,0-3.1,0h-8.563c-.085,0-.153.012-.194-.129a1.78,1.78,0,0,0-1.746-1.454,1.861,1.861,0,0,0-1.623,1.573c-.037.053-.086.023-.129.024-.452.009-.9-.015-1.356.013-.184.034-.263.2-.336.381v.249c.073.177.151.347.336.381.446.029.893,0,1.339.014.049,0,.1-.032.146.024a1.866,1.866,0,0,0,1.606,1.572,1.759,1.759,0,0,0,1.738-1.377c.051-.17.115-.208.254-.208q5.811.007,11.623.007a.534.534,0,0,0,.568-.413v-.249A.532.532,0,0,0,785.105,407.328Zm-13.517,1.6a1.082,1.082,0,1,1,.877-1.057A.986.986,0,0,1,771.589,408.928Z" fill="#063"/>
    <path id="Path_11581" data-name="Path 11581" d="M806.361,438.166v.259A.275.275,0,0,1,806.361,438.166Z" transform="translate(-36.151 -30.625)" fill="#063"/>
    <path id="Path_11582" data-name="Path 11582" d="M806.313,446.3a.262.262,0,0,1-.009-.212C806.344,446.151,806.328,446.207,806.313,446.3Z" transform="translate(-36.11 -38.113)" fill="#063"/>
  </g>
</svg>
