<svg xmlns="http://www.w3.org/2000/svg" width="16.884" height="16.884" viewBox="0 0 16.884 16.884">
  <path id="Path_11624" data-name="Path 11624" d="M-1653.189-212.8c-.035-.193-.018-.391-.046-.585a8.248,8.248,0,0,0-1.043-2.994,8.47,8.47,0,0,0-1.846-2.209,8.208,8.208,0,0,0-2.049-1.3,7.417,7.417,0,0,0-2.431-.658,1.664,1.664,0,0,1-.389-.029h-1.317c-.167.029-.337.017-.5.038a8.09,8.09,0,0,0-2.552.786,8.5,8.5,0,0,0-2.756,2.176,8.573,8.573,0,0,0-1.691,3.241,9.045,9.045,0,0,0-.225,3.1,7.566,7.566,0,0,0,.857,2.918,8.487,8.487,0,0,0,2.082,2.624,8.607,8.607,0,0,0,3.257,1.729,8.979,8.979,0,0,0,3.148.233,7.559,7.559,0,0,0,2.975-.891,8.4,8.4,0,0,0,2.584-2.08,8.327,8.327,0,0,0,1.9-4.187c.028-.189.011-.381.048-.568v-.3a.252.252,0,0,1,0-.2v-.494a.252.252,0,0,1,0-.2Zm-8.431,5.567a.687.687,0,0,1-.692-.7.687.687,0,0,1,.7-.692.687.687,0,0,1,.692.7A.688.688,0,0,1-1661.619-207.233Zm2.419-5.532a3.579,3.579,0,0,1-1.308,1.075.715.715,0,0,0-.415.674,1.688,1.688,0,0,1-.03.489.708.708,0,0,1-.732.489.71.71,0,0,1-.627-.687,2.3,2.3,0,0,1,.478-1.66,2.245,2.245,0,0,1,.747-.579,2.336,2.336,0,0,0,1.137-1.246,1.424,1.424,0,0,0-.246-1.421,1.716,1.716,0,0,0-1.827-.677,1.733,1.733,0,0,0-1.327,1.41,3.511,3.511,0,0,0-.034.36.682.682,0,0,1-.721.634.7.7,0,0,1-.671-.712,3.182,3.182,0,0,1,2.113-2.958,3.214,3.214,0,0,1,1.046-.176,3.168,3.168,0,0,1,3.127,2.69A2.975,2.975,0,0,1-1659.2-212.765Z" transform="translate(1670.072 220.569)" fill="#063"/>
</svg>
