<svg xmlns="http://www.w3.org/2000/svg" width="24.362" height="24.382" viewBox="0 0 24.362 24.382">
  <g id="Group_4061" data-name="Group 4061" transform="translate(1459.531 -1141.27)">
    <g id="Group_4060" data-name="Group 4060" transform="translate(-1459.531 1141.27)">
      <path id="Path_11626" data-name="Path 11626" d="M-1182.589,1650.612c.07-.078.162-.046.245-.046.426,0,.852,0,1.277,0,.015.01.02.021.015.032s-.01.016-.016.016Z" transform="translate(1195.819 -1626.23)" fill="#0c0d0f"/>
      <path id="Path_11627" data-name="Path 11627" d="M-1249.661,1650.594c.323,0,.646,0,.969,0,.076,0,.16-.026.222.047h-1.189c-.016-.01-.021-.021-.016-.031S-1249.666,1650.594-1249.661,1650.594Z" transform="translate(1259.703 -1626.259)" fill="#0b0c0e"/>
      <path id="Path_11628" data-name="Path 11628" d="M-1263.884,1650.668c0,.016,0,.031,0,.047h-.714c-.016-.01-.021-.02-.016-.031s.01-.016.015-.016Z" transform="translate(1273.926 -1626.333)" fill="#16161a"/>
      <path id="Path_11629" data-name="Path 11629" d="M-1143.1,1650.55c.158.02.324-.053.474.046h-.476c-.016-.011-.021-.021-.015-.031S-1143.11,1650.55-1143.1,1650.55Z" transform="translate(1158.239 -1626.214)" fill="#26262a"/>
      <path id="Path_11630" data-name="Path 11630" d="M-1272.182,1650.678c0,.016,0,.031,0,.047h-.38c-.015-.009-.021-.018-.016-.028s.009-.015.014-.015Z" transform="translate(1281.51 -1626.343)" fill="#242428"/>
      <path id="Path_11631" data-name="Path 11631" d="M-1150.343,1650.664c0,.015,0,.03,0,.046h-.38c0-.016,0-.032,0-.047Z" transform="translate(1165.477 -1626.327)" fill="#1a1a1e"/>
      <path id="Path_11632" data-name="Path 11632" d="M-950.658,1294.445a.215.215,0,0,1,0-.285Z" transform="translate(975.019 -1286.856)" fill="#28272c"/>
      <path id="Path_11633" data-name="Path 11633" d="M-1286.152,1650.532a.209.209,0,0,1,.285,0Z" transform="translate(1294.435 -1626.15)" fill="#615f65"/>
      <path id="Path_11634" data-name="Path 11634" d="M-1277.9,1650.58c0,.015,0,.029,0,.044h-.285C-1278.1,1650.532-1278,1650.592-1277.9,1650.58Z" transform="translate(1286.849 -1626.242)" fill="#353439"/>
      <path id="Path_11635" data-name="Path 11635" d="M-1130.808,1650.552a.212.212,0,0,1,.285,0Z" transform="translate(1146.512 -1626.17)" fill="#504f54"/>
      <path id="Path_11636" data-name="Path 11636" d="M-950.539,1493.465c-.005-.054-.017-.109.042-.145v.143Q-950.517,1493.494-950.539,1493.465Z" transform="translate(974.859 -1476.502)" fill="#3e3d42"/>
      <path id="Path_11637" data-name="Path 11637" d="M-950.47,1289.276c-.053-.032-.067-.063,0-.1Z" transform="translate(974.832 -1282.115)" fill="#68666c"/>
      <path id="Path_11638" data-name="Path 11638" d="M-950.446,1496.309l.042,0v.1c-.012.02-.026.022-.04,0Z" transform="translate(974.766 -1479.346)" fill="#555358"/>
      <path id="Path_11639" data-name="Path 11639" d="M-950.41,1498.3l.04,0v.1q-.019.031-.04,0Q-950.41,1498.348-950.41,1498.3Z" transform="translate(974.732 -1481.243)" fill="#69676d"/>
      <path id="Path_11640" data-name="Path 11640" d="M-950.518,1500.293l.04,0v.1C-950.536,1500.374-950.524,1500.332-950.518,1500.293Z" transform="translate(974.84 -1483.14)" fill="#817f84"/>
      <path id="Path_11641" data-name="Path 11641" d="M-1118.858,1650.637q.047-.1.1,0Z" transform="translate(1135.133 -1626.255)" fill="#939196"/>
      <g id="Group_4059" data-name="Group 4059" transform="translate(0 0)">
        <path id="Path_11642" data-name="Path 11642" d="M-1435.169,1148.193c-.035-.041-.024-.09-.024-.136a6.948,6.948,0,0,0-.305-2.035,6.419,6.419,0,0,0-1.678-2.8,7.069,7.069,0,0,0-4.633-1.888c-.955-.064-1.915-.058-2.873-.057-2.037,0-4.074-.008-6.11,0a22.8,22.8,0,0,0-2.514.095,7.41,7.41,0,0,0-2.61.765,6.366,6.366,0,0,0-3.34,4.475,13.756,13.756,0,0,0-.262,3.023c0,2.766-.034,5.531.016,8.3a13.073,13.073,0,0,0,.2,2.174,6.567,6.567,0,0,0,1.769,3.515,6.885,6.885,0,0,0,4.751,1.986c.354.018.709,0,1.062.047h.476a.363.363,0,0,1,.285,0h.1c.1-.05.209-.013.313-.025h1.072a11.583,11.583,0,0,1,1.184.025h2c.5-.055,1-.01,1.506-.025h.385a2,2,0,0,1,.488.025h.1a.364.364,0,0,1,.286,0h.285a.062.062,0,0,1,.1,0h.143a2.357,2.357,0,0,1,.587-.023,10.5,10.5,0,0,0,2-.2,6.548,6.548,0,0,0,3.5-1.981,6.729,6.729,0,0,0,1.721-4.2,2.235,2.235,0,0,1,.043-.538v-.19c-.033-.031-.022-.071-.025-.109v-.177c.006-.048-.016-.1.025-.142v-9.229a.363.363,0,0,1,0-.285v-.143a.062.062,0,0,1,0-.1Zm-2.194,9.517a9.3,9.3,0,0,1-.316,2.558,4.1,4.1,0,0,1-3.344,2.958,20.979,20.979,0,0,1-3.623.222c-.887.023-1.776,0-2.663,0-1.744.013-3.488.017-5.229-.087a5.38,5.38,0,0,1-2.678-.77,4.206,4.206,0,0,1-1.839-2.9,13.67,13.67,0,0,1-.182-2.318q-.068-3.9,0-7.8a11.218,11.218,0,0,1,.269-2.686,4.09,4.09,0,0,1,3.5-3.167,22.858,22.858,0,0,1,4.006-.2c1.879,0,3.758-.014,5.636.011a12.9,12.9,0,0,1,3.115.276,4.083,4.083,0,0,1,3.162,3.424,17.6,17.6,0,0,1,.2,3.077Q-1437.268,1154.012-1437.363,1157.71Z" transform="translate(1459.531 -1141.27)" fill="#040506"/>
      </g>
      <path id="Path_11643" data-name="Path 11643" d="M-1096.5,1232.787a1.443,1.443,0,0,1-1.458-1.455,1.464,1.464,0,0,1,1.45-1.474,1.481,1.481,0,0,1,1.479,1.477A1.462,1.462,0,0,1-1096.5,1232.787Z" transform="translate(1115.231 -1225.626)" fill="#040506"/>
    </g>
    <path id="Path_11644" data-name="Path 11644" d="M-1328.513,1265.547a6.293,6.293,0,0,0-6.266,6.272,6.294,6.294,0,0,0,6.273,6.266,6.293,6.293,0,0,0,6.265-6.273A6.292,6.292,0,0,0-1328.513,1265.547Zm0,10.315a4.032,4.032,0,0,1-4.039-4.061,4.036,4.036,0,0,1,4.066-4.034,4.04,4.04,0,0,1,4.029,4.074A4.036,4.036,0,0,1-1328.518,1275.862Z" transform="translate(-118.792 -118.34)" fill="#040506"/>
  </g>
</svg>
