<svg xmlns="http://www.w3.org/2000/svg" width="25.156" height="21" viewBox="0 0 25.156 21">
  <g id="Group_4083" data-name="Group 4083" transform="translate(-1363.969 -92.746)">
    <path id="Path_11654" data-name="Path 11654" d="M1389.125,245.947v8.442a2.77,2.77,0,0,1-1.347,2.058,2.552,2.552,0,0,1-1.416.418q-9.8,0-19.608-.005a2.777,2.777,0,0,1-2.43-1.462,2.567,2.567,0,0,1-.354-1.405q.007-3.841,0-7.681c0-.454,0-.456.425-.314l6.146,2.048c1.715.572,3.432,1.137,5.144,1.719a2.632,2.632,0,0,0,1.75,0q5.654-1.9,11.314-3.773C1388.87,245.951,1388.99,245.868,1389.125,245.947Z" transform="translate(0 -143.121)" fill="#063"/>
    <path id="Path_11655" data-name="Path 11655" d="M1746.709,177.746a.272.272,0,0,1-.044-.251.049.049,0,0,0,.044.005Z" transform="translate(-357.584 -79.19)" fill="#063"/>
    <path id="Path_11656" data-name="Path 11656" d="M1389.356,98.305a2.129,2.129,0,0,0-.214-.724,2.817,2.817,0,0,0-2.679-1.687q-2.6-.01-5.2,0c-.189,0-.257-.041-.246-.241.017-.31.01-.622,0-.932a2.043,2.043,0,0,0-1.976-1.962c-1.464-.023-2.928-.02-4.392,0a2.044,2.044,0,0,0-1.936,1.589,5.352,5.352,0,0,0-.052,1.3c0,.209-.064.253-.261.252-1.742-.008-3.484-.011-5.226,0a2.864,2.864,0,0,0-2.9,2.911c0,.7.01,1.407-.007,2.11,0,.205.067.275.248.335q5.931,1.966,11.856,3.949a1.37,1.37,0,0,0,.925.006c2.527-.85,5.057-1.688,7.586-2.532q2.262-.755,4.521-1.517v-2.6C1389.341,98.48,1389.406,98.383,1389.356,98.305ZM1378.722,95.9c-.637-.011-1.274,0-1.91,0s-1.257,0-1.886,0c-.152,0-.2-.042-.192-.193.012-.236.008-.474,0-.71,0-.114.032-.158.152-.157q1.947,0,3.894,0c.117,0,.158.038.154.155-.007.228-.012.458,0,.686C1378.947,95.845,1378.9,95.9,1378.722,95.9Z" transform="translate(-0.275 0)" fill="#063"/>
  </g>
</svg>
