<svg id="Group_10" data-name="Group 10" xmlns="http://www.w3.org/2000/svg" width="359" height="93.367" viewBox="0 0 359 93.367">
  <text id="PharmaTawzeef" transform="translate(85 78.367)" fill="#fff" font-size="37" font-family="ErasITC-Demi, Eras ITC" font-weight="300" letter-spacing="-0.02em"><tspan x="0" y="0">PharmaTawzeef</tspan></text>
  <g id="Group_8" data-name="Group 8" transform="translate(97.4 14.089)">
    <path id="Path_5" data-name="Path 5" d="M463.156,303.588H443.34a7.084,7.084,0,0,1-6.042-2.969,6.272,6.272,0,0,1-1.1-2.52,17.547,17.547,0,0,1-.138-2.8V292.2h3.21v3.694a5.005,5.005,0,0,0,.691,2.865,3.537,3.537,0,0,0,2.14,1.45,14.877,14.877,0,0,0,2.59.138h6.767a7.739,7.739,0,0,1-1.105-3.97,6.89,6.89,0,0,1,2.21-5.214,8.387,8.387,0,0,1,5.9-1.933h4.281v11.117h.414Zm-3.694-11.117h-1.036a5.111,5.111,0,0,0-3.66,1.139,3.706,3.706,0,0,0-1.174,2.8,3.75,3.75,0,0,0,1.554,3.28,5.731,5.731,0,0,0,3.176.656h1.139ZM456.6,282.321a2.126,2.126,0,0,1,1.381.518,1.783,1.783,0,0,1,.587,1.312,1.842,1.842,0,0,1-.587,1.312,1.969,1.969,0,0,1-1.347.552,1.99,1.99,0,0,1-1.381-.552,1.8,1.8,0,0,1-.552-1.312,1.558,1.558,0,0,1,.552-1.243A1.86,1.86,0,0,1,456.6,282.321Z" transform="translate(-436.055 -282.321)" fill="#fff"/>
    <path id="Path_6" data-name="Path 6" d="M481.436,312.768h14.789v3.245H481.436Z" transform="translate(-454.575 -294.746)" fill="#fff"/>
    <path id="Path_7" data-name="Path 7" d="M502.376,312.768h31.186v3.245H502.376Z" transform="translate(-462.386 -294.746)" fill="#fff"/>
    <path id="Path_8" data-name="Path 8" d="M523.316,312.768H543.7v3.245H523.316Z" transform="translate(-453.794 -294.746)" fill="#fff"/>
    <path id="Path_9" data-name="Path 9" d="M544.137,312.768h20.8v3.245h-20.8Z" transform="translate(-455.066 -294.746)" fill="#fff"/>
    <path id="Path_10" data-name="Path 10" d="M565.077,305.1h8.717V293.987H577.5V305.1h7.18l-1.1,3.245H565.077Zm5.285,6.352a2.485,2.485,0,0,1,1.617.553,1.607,1.607,0,0,1,0,2.555,2.3,2.3,0,0,1-1.578.587,2.276,2.276,0,0,1-1.538-.587,1.552,1.552,0,0,1,0-2.555A2.4,2.4,0,0,1,570.362,311.456Zm5.167,0a2.485,2.485,0,0,1,1.617.553,1.609,1.609,0,0,1,0,2.555,2.3,2.3,0,0,1-1.577.587,2.276,2.276,0,0,1-1.539-.587,1.552,1.552,0,0,1,0-2.555A2.244,2.244,0,0,1,575.529,311.456Z" transform="translate(-455.432 -287.082)" fill="#fff"/>
    <path id="Path_11" data-name="Path 11" d="M583.743,303.588l-1.33-3.245H587.3V282.321h3.245v6.905H598a8.387,8.387,0,0,1,5.9,1.933,6.8,6.8,0,0,1,2.175,5.179,6.992,6.992,0,0,1-2.935,6.008,6.7,6.7,0,0,1-2.555,1.1,16.764,16.764,0,0,1-2.762.138Zm6.8-3.245h7.872a4.95,4.95,0,0,0,2.865-.656,3.776,3.776,0,0,0,1.588-3.28,3.828,3.828,0,0,0-.726-2.313,2.831,2.831,0,0,0-1.83-1.312,12.835,12.835,0,0,0-3.211-.31h-6.56Zm5.835-18.022a2.148,2.148,0,0,1,1.415.518,1.783,1.783,0,0,1,.587,1.312,1.841,1.841,0,0,1-.587,1.312,1.87,1.87,0,0,1-1.381.552,1.967,1.967,0,0,1-1.346-.552,1.841,1.841,0,0,1-.587-1.312,1.588,1.588,0,0,1,.587-1.243A1.841,1.841,0,0,1,596.379,282.321Z" transform="translate(-456.047 -282.321)" fill="#fff"/>
    <path id="Path_12" data-name="Path 12" d="M636.758,305.1h.414v3.245h-.414a17.094,17.094,0,0,1-.622,4.039,8.639,8.639,0,0,1-1.864,2.9,7.43,7.43,0,0,1-2.831,1.933,17.3,17.3,0,0,1-6.076.829h-.932l-.034-3.17h2.313c2.348-.041,4.108-.593,5.248-1.767.9-.967,1.381-2.521,1.484-4.765h-.794a17.312,17.312,0,0,1-2.762-.138,6.626,6.626,0,0,1-2.59-1.1,7.478,7.478,0,0,1-.724-11.186,8.382,8.382,0,0,1,5.9-1.933h4.281Zm-3.211-7.871h-1.1a5.164,5.164,0,0,0-3.659,1.139,3.7,3.7,0,0,0-1.174,2.8,3.777,3.777,0,0,0,1.587,3.28,5.734,5.734,0,0,0,3.176.656h1.174Z" transform="translate(-464.326 -287.082)" fill="#fff"/>
    <path id="Path_13" data-name="Path 13" d="M645.572,312.768h44.346v3.245H645.572Z" transform="translate(-472.868 -294.746)" fill="#fff"/>
    <path id="Path_14" data-name="Path 14" d="M666.513,312.768h38.175v3.245H666.513Z" transform="translate(-450.663 -294.746)" fill="#fff"/>
    <path id="Path_15" data-name="Path 15" d="M699.639,312.768H687.453v3.245h12.186Z" transform="translate(-451.191 -294.746)" fill="#fff"/>
    <path id="Path_16" data-name="Path 16" d="M708.274,312.768H710.9v3.245h-2.628Z" transform="translate(-465.918 -294.746)" fill="#fff"/>
    <path id="Path_17" data-name="Path 17" d="M729.214,300.343h7.63V289.226h3.245v14.362H729.214Zm4.661-18.022a2.151,2.151,0,0,1,1.416.518,1.676,1.676,0,0,1,.587,1.312,1.709,1.709,0,0,1-.587,1.277,1.878,1.878,0,0,1-1.381.587,1.858,1.858,0,0,1-1.347-.587,1.709,1.709,0,0,1-.587-1.277,1.588,1.588,0,0,1,.587-1.243A1.843,1.843,0,0,1,733.875,282.321Zm4.523,0a2.148,2.148,0,0,1,1.415.518,1.648,1.648,0,0,1,.552,1.312,1.674,1.674,0,0,1-.552,1.277,1.877,1.877,0,0,1-2.728,0,1.711,1.711,0,0,1-.587-1.277,1.59,1.59,0,0,1,.587-1.243A1.843,1.843,0,0,1,738.4,282.321Z" transform="translate(-480.765 -282.321)" fill="#fff"/>
  </g>
  <path id="Path_18" data-name="Path 18" d="M358.8,259.647c-2.457-.261-4.9-.662-7.364-.838a106.558,106.558,0,0,0-30.575,2.119,86.435,86.435,0,0,0-40.919,21.032,40.377,40.377,0,0,0-4.308,54.54,18.039,18.039,0,0,0,2.627,2.872l3.519,3.246A15.738,15.738,0,0,0,283.8,344.2l4.279,2.815a40.532,40.532,0,0,0,28.739,3.749c8.963-2.078,16.007-7.1,21.705-14.23,4.695-5.875,8.013-12.328,9.059-19.849.663-4.765.726-9.569.956-14.363a101.782,101.782,0,0,1,2.314-17.92,112.619,112.619,0,0,1,8.505-23.7C359.726,259.942,359.59,259.731,358.8,259.647Zm-42.55,73.511a5.129,5.129,0,1,1,5.129-5.129A5.13,5.13,0,0,1,316.251,333.159Zm8.593-11.388a6.258,6.258,0,1,1,6.258-6.259A6.259,6.259,0,0,1,324.844,321.771Zm14.444-21.954A46.326,46.326,0,0,0,323,292.877a5,5,0,0,0-.339.417C297.744,331.6,297.976,342,297.938,342.245c-.159,1.052-2.5.32-4.007-2.762-2.519-5.141-1.07-24.584,14.975-45.418,3-.7,6.477-1.247,9.322-1.624-17.443-3.251-35.663,7.685-35.918,8.706-1.831-19.958,49.777-20.87,59.677-15.127C346.84,288.835,339.288,299.818,339.288,299.818Z" transform="translate(-267.022 -258.518)" fill="#fff"/>
</svg>
