<svg xmlns="http://www.w3.org/2000/svg" width="19.279" height="17.418" viewBox="0 0 19.279 17.418">
  <g id="Group_3631" data-name="Group 3631" transform="translate(0.5 0.5)">
    <path id="Path_777" data-name="Path 777" d="M24.388,12.168a4.527,4.527,0,0,1-2.454.951,19.691,19.691,0,0,1-8.714-.3,3.984,3.984,0,0,1-1.252-.551c-.3-.15-.3-.4-.05-.651a6.409,6.409,0,0,0,2.1-4.858A5.342,5.342,0,0,1,16.075,2.6l.451-.3a.762.762,0,0,0,.5-.651,1.332,1.332,0,0,1,1-1.152h.651a1.5,1.5,0,0,1,1.052,1.452.37.37,0,0,0,.25.3,4.722,4.722,0,0,1,2.654,3.806,14.621,14.621,0,0,0,.851,4.157,15.7,15.7,0,0,0,.9,1.552Z" transform="translate(-6.11 -0.5)" fill="#063" stroke="#063" stroke-width="1"/>
    <path id="Path_778" data-name="Path 778" d="M.5,7.751A1.42,1.42,0,0,1,1.752,7.2H6.76c-.25.6-.451,1.152-.7,1.753-1.552,0-3.1.05-4.707,0-.3,0-.551-.351-.851-.5C.5,8.2.5,8,.5,7.751Z" transform="translate(-0.5 -3.845)" fill="#063" stroke="#063" stroke-width="1"/>
    <path id="Path_779" data-name="Path 779" d="M.5,15.543a1.078,1.078,0,0,1,1.1-.551c1.252.05,2.554,0,3.806,0h.551c-.1.551-.15,1-.25,1.452,0,.1-.2.25-.3.25H1.3a.857.857,0,0,1-.8-.6C.5,15.894.5,15.744.5,15.543Z" transform="translate(-0.5 -7.731)" fill="#063" stroke="#063" stroke-width="1"/>
    <path id="Path_780" data-name="Path 780" d="M28.252,31.253A1.5,1.5,0,0,1,27.1,29.8c.9-.15,1.853-.25,2.754-.4a1.345,1.345,0,0,1-.651,1.7,1.255,1.255,0,0,0-.351.2A2.646,2.646,0,0,0,28.252,31.253Z" transform="translate(-13.779 -14.927)" fill="#063" stroke="#063" stroke-width="1"/>
  </g>
</svg>
