<svg xmlns="http://www.w3.org/2000/svg" width="29.098" height="18.979" viewBox="0 0 29.098 18.979">
  <g id="Group_4090" data-name="Group 4090" transform="translate(469.909 2.108)">
    <path id="Path_11613" data-name="Path 11613" d="M-369.658,114.832a2.514,2.514,0,0,1-.607.909,2.019,2.019,0,0,1-1.3.44q-3.593-.006-7.186,0-6.32,0-12.64,0a1.8,1.8,0,0,1-1.882-1.463,1.755,1.755,0,0,1,1.69-1.983q.156-.006.312-.006,9.8,0,19.6,0a1.888,1.888,0,0,1,1.846,1c.069.13.115.272.171.408Z" transform="translate(-71.153 -107.076)" fill="#063"/>
    <path id="Path_11614" data-name="Path 11614" d="M-382.329-2.107q4.517,0,9.034,0a1.781,1.781,0,0,1,1.813,1.3,1.742,1.742,0,0,1-1.6,2.138c-.094.006-.189.006-.284.006H-391.32A1.8,1.8,0,0,1-393.2.01,1.733,1.733,0,0,1-391.449-2.1c3.04-.01,6.079,0,9.119,0Z" transform="translate(-71.201)" fill="#063"/>
    <path id="Path_11615" data-name="Path 11615" d="M-385.571,227.676q2.9,0,5.8,0a1.8,1.8,0,0,1,1.836,1.165,1.731,1.731,0,0,1-1.6,2.282c-.038,0-.076,0-.114,0q-5.909,0-11.818,0a1.791,1.791,0,0,1-1.806-1.453,1.73,1.73,0,0,1,1.68-1.984c2.007-.02,4.015-.006,6.022-.006Z" transform="translate(-71.154 -214.269)" fill="#063"/>
    <path id="Path_11616" data-name="Path 11616" d="M-466.263-.283a1.8,1.8,0,0,1-1.766,1.689,1.812,1.812,0,0,1-1.879-1.5,1.8,1.8,0,0,1,1.757-1.947A1.777,1.777,0,0,1-466.263-.283Z" transform="translate(0 -0.057)" fill="#063"/>
    <path id="Path_11617" data-name="Path 11617" d="M-466.216,229.476a1.785,1.785,0,0,1-1.677,1.733,1.843,1.843,0,0,1-1.965-1.743,1.791,1.791,0,0,1,1.832-1.717A1.781,1.781,0,0,1-466.216,229.476Z" transform="translate(-0.047 -214.337)" fill="#063"/>
    <path id="Path_11618" data-name="Path 11618" d="M-466.217,114.558a1.79,1.79,0,0,1-1.661,1.721,1.839,1.839,0,0,1-1.982-1.752,1.8,1.8,0,0,1,1.815-1.71A1.79,1.79,0,0,1-466.217,114.558Z" transform="translate(-0.046 -107.166)" fill="#063"/>
  </g>
</svg>
