<svg xmlns="http://www.w3.org/2000/svg" width="26.035" height="33.674" viewBox="0 0 26.035 33.674">
  <g id="Group_1591" data-name="Group 1591" transform="translate(-202.872 -281.51)">
    <path id="Path_11595" data-name="Path 11595" d="M206.313,282.51h19.214a2.552,2.552,0,0,1,2.164,1.6,2.407,2.407,0,0,1,.215,1.08q-.005,6.193,0,12.385,0,7.413,0,14.825a2.18,2.18,0,0,1-.347,1.227,1.1,1.1,0,0,1-.83.525,1.974,1.974,0,0,1-1.608-.444q-4-3.4-7.99-6.811a1.592,1.592,0,0,0-2.349-.007q-3.934,3.358-7.883,6.7a2.175,2.175,0,0,1-1.634.586,1.325,1.325,0,0,1-1.1-.683,2.2,2.2,0,0,1-.292-1.181q.007-9.158,0-18.315c0-2.9.006-5.807,0-8.71a2.811,2.811,0,0,1,1.556-2.551A2.511,2.511,0,0,1,206.313,282.51Z" transform="translate(0)" fill="none" stroke="#063" stroke-width="2"/>
  </g>
</svg>
