<svg xmlns="http://www.w3.org/2000/svg" width="29.128" height="35.5" viewBox="0 0 29.128 35.5">
  <path id="ic_notifications_none_24px" d="M18.564,38a3.652,3.652,0,0,0,3.641-3.641H14.923A3.652,3.652,0,0,0,18.564,38ZM29.487,27.077v-9.1c0-5.589-2.967-10.268-8.192-11.506V5.231a2.731,2.731,0,0,0-5.462,0V6.469c-5.207,1.238-8.192,5.9-8.192,11.506v9.1L4,30.718v1.821H33.128V30.718ZM25.846,28.9H11.282V17.974c0-4.515,2.749-8.192,7.282-8.192s7.282,3.677,7.282,8.192Z" transform="translate(-4 -2.5)" fill="#fffdfd"/>
</svg>
