<svg xmlns="http://www.w3.org/2000/svg" width="23.197" height="27.813" viewBox="0 0 23.197 27.813">
  <g id="Group_1583" data-name="Group 1583" transform="translate(0 0)">
    <path id="Path_11573" data-name="Path 11573" d="M-1622.947,2034.631a2.713,2.713,0,0,0-.7-.159,4.4,4.4,0,0,1-3.431-3.842,15.777,15.777,0,0,1,.363-4.823,8.493,8.493,0,0,1,1.743-3.8,5.026,5.026,0,0,1,3.931-1.754,1.522,1.522,0,0,1,.833.293c.4.25.79.509,1.189.756a6.182,6.182,0,0,0,6.973,0c.323-.2.651-.394.954-.62a2.32,2.32,0,0,1,1.827-.377,5.154,5.154,0,0,1,3.939,2.822,12.126,12.126,0,0,1,1.28,4.531,17.793,17.793,0,0,1,.105,2.358,4.462,4.462,0,0,1-4.177,4.571c-.043,0-.092-.006-.115.048Z" transform="translate(1627.128 -2006.818)" fill="#063"/>
    <path id="Path_11574" data-name="Path 11574" d="M-1601.068,1990.961a6.7,6.7,0,0,1-6.711,6.706,6.686,6.686,0,0,1-6.69-6.7,6.683,6.683,0,0,1,6.68-6.7A6.691,6.691,0,0,1-1601.068,1990.961Z" transform="translate(1619.195 -1984.268)" fill="#063"/>
  </g>
</svg>
