<svg xmlns="http://www.w3.org/2000/svg" width="20.056" height="22.304" viewBox="0 0 20.056 22.304">
  <path id="Path_11596" data-name="Path 11596" d="M-240.017,529.633c-.029-1.094-.1-2.184-.225-3.271a.907.907,0,0,0-.784-.908c-1.755-.482-3.5-.986-5.262-1.46-1.181-.319-2.344-.706-3.547-.94h-.392c-.15.056-.311.051-.465.093-2.789.77-5.575,1.552-8.363,2.325a.867.867,0,0,0-.717.846c-.034.324-.068.648-.1.973-.106,1.082-.122,2.168-.166,3.253-.016.4.054.8.044,1.194a14.287,14.287,0,0,0,.1,1.691,19.013,19.013,0,0,0,.62,3.4,9.7,9.7,0,0,0,.943,2.334,13.571,13.571,0,0,0,3.7,4.022,15.051,15.051,0,0,0,3.568,1.928,2.341,2.341,0,0,0,1.65.154,14.8,14.8,0,0,0,2.991-1.393,14.276,14.276,0,0,0,3.248-2.7,12.7,12.7,0,0,0,1.386-1.838,11.585,11.585,0,0,0,1.282-3.476,25.837,25.837,0,0,0,.518-4.942C-239.973,530.488-240.006,530.06-240.017,529.633Zm-4.291,1.758q-1.848,1.843-3.691,3.69l-2.245,2.245a.746.746,0,0,1-1.218.008l-3.583-3.583a.747.747,0,0,1,0-1.217c.194-.2.388-.392.584-.585a.728.728,0,0,1,1.155,0c.755.752,1.514,1.5,2.256,2.265.165.17.244.144.4-.009q2.26-2.276,4.534-4.539a.756.756,0,0,1,1.25,0c.2.2.4.4.6.6a.7.7,0,0,1,.237.534A.756.756,0,0,1-244.308,531.391Z" transform="translate(260.039 -523.054)" fill="#005e2f"/>
</svg>
