<svg xmlns="http://www.w3.org/2000/svg" width="13.544" height="17.849" viewBox="0 0 13.544 17.849">
  <g id="Group_1591" data-name="Group 1591" transform="translate(-203.872 -282.51)">
    <path id="Path_11595" data-name="Path 11595" d="M205.248,282.51h10.828a1.438,1.438,0,0,1,1.219.9,1.356,1.356,0,0,1,.121.608q0,3.49,0,6.979,0,4.177,0,8.354a1.229,1.229,0,0,1-.2.692.621.621,0,0,1-.468.3,1.112,1.112,0,0,1-.906-.25q-2.252-1.918-4.5-3.838a.9.9,0,0,0-1.324,0q-2.217,1.892-4.442,3.775a1.226,1.226,0,0,1-.921.33.747.747,0,0,1-.62-.385,1.239,1.239,0,0,1-.165-.666q0-5.161,0-10.321c0-1.636,0-3.272,0-4.908a1.584,1.584,0,0,1,.877-1.437A1.414,1.414,0,0,1,205.248,282.51Z" fill="#063"/>
  </g>
</svg>
