<svg xmlns="http://www.w3.org/2000/svg" width="16.18" height="16.18" viewBox="0 0 16.18 16.18">
  <path id="Path_11646" data-name="Path 11646" d="M1460.79-59.062a.493.493,0,0,0-.32-.464.938.938,0,0,0-.2-.06l-1.457-.354a.353.353,0,0,1-.3-.259,3.692,3.692,0,0,0-.256-.61.325.325,0,0,1,.022-.353q.358-.577.7-1.163a.529.529,0,0,0-.1-.775q-.584-.588-1.172-1.172a.567.567,0,0,0-.842-.1q-.576.343-1.15.692a.29.29,0,0,1-.31.014,4.163,4.163,0,0,0-.625-.261.332.332,0,0,1-.243-.274c-.127-.516-.243-1.035-.377-1.549a.521.521,0,0,0-.579-.444h-1.736a.54.54,0,0,0-.633.5c-.121.506-.249,1.011-.37,1.518a.314.314,0,0,1-.227.254,4.544,4.544,0,0,0-.7.292.3.3,0,0,1-.324-.014c-.4-.24-.79-.483-1.187-.72a.584.584,0,0,0-.859.105q-.578.572-1.149,1.15a.59.59,0,0,0-.1.825c.245.412.487.824.741,1.23a.343.343,0,0,1,.024.381,3.091,3.091,0,0,0-.21.51.312.312,0,0,1-.254.224c-.516.128-1.034.246-1.549.377a.515.515,0,0,0-.442.43v2.084a.5.5,0,0,0,.427.424c.526.132,1.053.255,1.579.386a.3.3,0,0,1,.242.217,4.383,4.383,0,0,0,.278.67.282.282,0,0,1-.014.307c-.224.362-.44.73-.659,1.1a.572.572,0,0,0,.1.819l1.172,1.172a.57.57,0,0,0,.819.1c.375-.224.751-.447,1.123-.675a.245.245,0,0,1,.264-.011,4.946,4.946,0,0,0,.683.288.309.309,0,0,1,.223.254c.127.521.256,1.042.382,1.564a.5.5,0,0,0,.424.428h2.084a.5.5,0,0,0,.422-.411c.01-.035.019-.071.027-.107.114-.5.243-.991.362-1.487a.3.3,0,0,1,.218-.242,4.231,4.231,0,0,0,.669-.28.326.326,0,0,1,.352.024c.376.232.754.461,1.137.682a.561.561,0,0,0,.761-.095q.609-.6,1.206-1.205a.559.559,0,0,0,.087-.807c-.23-.384-.457-.769-.692-1.15a.275.275,0,0,1-.019-.294,3.115,3.115,0,0,0,.233-.552.428.428,0,0,1,.367-.331q.746-.171,1.488-.36a.5.5,0,0,0,.438-.5C1460.792-57.778,1460.789-58.42,1460.79-59.062Zm-8.1,4.278a3.325,3.325,0,0,1-3.314-3.307,3.326,3.326,0,0,1,3.315-3.322,3.325,3.325,0,0,1,3.314,3.307A3.325,3.325,0,0,1,1452.692-54.784Z" transform="translate(-1444.61 66.196)" fill="#063"/>
</svg>
