<svg xmlns="http://www.w3.org/2000/svg" width="33" height="33" viewBox="0 0 33 33">
  <g id="Group_4080" data-name="Group 4080" transform="translate(-368 -37)">
    <g id="Rectangle_115" data-name="Rectangle 115" transform="translate(368 37)" fill="#fff" stroke="#707070" stroke-width="1">
      <rect width="33" height="33" rx="14" stroke="none"/>
      <rect x="0.5" y="0.5" width="32" height="32" rx="13.5" fill="none"/>
    </g>
    <path id="Path_11590" data-name="Path 11590" d="M-96.229,217.79q-1.152.933-2.3,1.865-3.661,2.983-7.32,5.968c-.019.016-.041.028-.066.045a.353.353,0,0,1-.025-.22q0-2.229,0-4.458c0-.145-.023-.192-.183-.181a11.116,11.116,0,0,0-4.756,1.425,10.708,10.708,0,0,0-4.423,4.617c-.534,1.077-.967,2.2-1.446,3.308-.027.061-.057.121-.086.181-.1-.038-.051-.127-.051-.188,0-1.318,0-2.635,0-3.953a.41.41,0,0,0-.02-.217V225.7c.025-.022.02-.052.021-.081s0-.058-.021-.081v-.161c.047-.4.058-.813.134-1.216a11.521,11.521,0,0,1,1.651-4.156,11.457,11.457,0,0,1,1.7-2.071,11.745,11.745,0,0,1,2.607-1.894,11.651,11.651,0,0,1,3.92-1.274,5.107,5.107,0,0,1,.623-.061c.245,0,.276-.042.276-.287q0-2.129,0-4.258c0-.11-.052-.266.064-.314s.2.086.286.157q2.9,2.352,5.8,4.712,1.725,1.4,3.45,2.8C-96.306,217.586-96.2,217.648-96.229,217.79Z" transform="translate(492.245 -165.673)" fill="#063"/>
  </g>
</svg>
