<svg xmlns="http://www.w3.org/2000/svg" width="27.923" height="22.735" viewBox="0 0 27.923 22.735">
  <g id="Group_4062" data-name="Group 4062" transform="translate(2759.993 -594.168)">
    <path id="Path_11645" data-name="Path 11645" d="M-2751.538,611.962a5.775,5.775,0,0,1-3.684-1.472,5.74,5.74,0,0,1-1.654-2.534,6.055,6.055,0,0,0,2.525-.094,5.781,5.781,0,0,1-3.285-2.06,5.727,5.727,0,0,1-1.249-3.637,6.989,6.989,0,0,0,1.23.493,5.515,5.515,0,0,0,1.328.2,5.75,5.75,0,0,1-2.457-3.987,5.617,5.617,0,0,1,.734-3.652,16.337,16.337,0,0,0,11.808,5.991,7.317,7.317,0,0,1-.1-1.749,5.561,5.561,0,0,1,1.749-3.7,5.547,5.547,0,0,1,4.291-1.584,5.509,5.509,0,0,1,3.574,1.532.613.613,0,0,0,.658.183,12.073,12.073,0,0,0,3.22-1.286,5.42,5.42,0,0,1-2.418,3.115,8.009,8.009,0,0,0,1.628-.3c.522-.138,1.032-.319,1.57-.484-.2.27-.391.547-.6.808a11.094,11.094,0,0,1-2.043,1.959.361.361,0,0,0-.165.339,16.613,16.613,0,0,1-3.625,10.844,15.2,15.2,0,0,1-8.73,5.571,16.9,16.9,0,0,1-5.444.377,16.1,16.1,0,0,1-7.313-2.508A11.741,11.741,0,0,0-2751.538,611.962Z" fill="#040505"/>
  </g>
</svg>
