<svg xmlns="http://www.w3.org/2000/svg" width="17.189" height="20.917" viewBox="0 0 17.189 20.917">
  <path id="Path_11651" data-name="Path 11651" d="M2090.016-10.83q-1.946-1.934-3.881-3.878a1.016,1.016,0,0,0-.276-.206H2074.8a.11.11,0,0,1-.056.02,1.853,1.853,0,0,0-1.684,1.818q.012,8.607,0,17.215a1.478,1.478,0,0,0,.022.325A1.917,1.917,0,0,0,2074.982,6c4.453-.009,8.906,0,13.36-.005a2.016,2.016,0,0,0,.525-.053,1.912,1.912,0,0,0,1.38-1.8q0-7.21,0-14.42A.73.73,0,0,0,2090.016-10.83Zm-4.777,8.26c-.816,0-1.632.006-2.448,0-.152,0-.193.037-.192.192.006,1.455,0,2.91.008,4.365,0,.158-.036.2-.2.2q-.745-.017-1.489,0c-.164,0-.215-.03-.214-.206.008-1.435,0-2.869.01-4.3,0-.193-.039-.252-.24-.249-.789.012-1.577.006-2.366,0a.378.378,0,0,1-.2-.016c0-.067.056-.091.091-.126q1.766-1.768,3.532-3.535c.084-.084.131-.118.237-.012q1.789,1.8,3.589,3.594c.019.019.034.04.052.061C2085.359-2.539,2085.294-2.57,2085.239-2.569Zm2.435-6.644q-1.5,0-3,0c-.108,0-.172,0-.171-.146.006-1.5,0-3,0-4.507a.131.131,0,0,1,.009-.04l4.69,4.692Z" transform="translate(-2073.061 14.914)" fill="#fff"/>
</svg>
