<svg xmlns="http://www.w3.org/2000/svg" width="19.362" height="19.362" viewBox="0 0 19.362 19.362">
  <path id="ic_vpn_lock_24px" d="M19.482,3.64V3.2a2.2,2.2,0,0,0-4.4,0v.44a.883.883,0,0,0-.88.88v3.52a.883.883,0,0,0,.88.88h4.4a.883.883,0,0,0,.88-.88V4.52A.883.883,0,0,0,19.482,3.64Zm-.7,0H15.786V3.2a1.5,1.5,0,0,1,2.992,0v.44Zm-2.007,7.041a7.266,7.266,0,0,1,.07.88,7,7,0,0,1-1.848,4.744,1.746,1.746,0,0,0-1.672-1.223h-.88v-2.64a.883.883,0,0,0-.88-.88H6.281V9.8h1.76a.883.883,0,0,0,.88-.88V7.161h1.76a1.765,1.765,0,0,0,1.76-1.76V3.165a8.8,8.8,0,1,0,6.161,8.4c0-.3-.018-.59-.044-.88ZM8.921,18.54A7.031,7.031,0,0,1,2.76,11.561a7.145,7.145,0,0,1,.185-1.575L7.161,14.2v.88a1.765,1.765,0,0,0,1.76,1.76Z" transform="translate(-1 -1)" fill="#2f97d1"/>
</svg>
